<?xml version="1.0" encoding="utf-8"?>
<!-- Generator: Adobe Illustrator 26.5.0, SVG Export Plug-In . SVG Version: 6.00 Build 0)  -->
<svg version="1.1" id="Layer_1" xmlns="http://www.w3.org/2000/svg" xmlns:xlink="http://www.w3.org/1999/xlink" x="0px" y="0px"
	 viewBox="0 0 617.8 484" style="enable-background:new 0 0 617.8 484;" xml:space="preserve">
<style type="text/css">
	.st0{fill:#FBFAF6;}
	.st1{fill:#4978C8;}
	.st2{fill:#FDD00E;}
	.st3{fill:#F2777C;}
	.st4{fill:#308E6B;}
	.st5{fill:#EC9BC3;}
	.st6{fill:#F34A36;}
	.st7{fill:#FFC730;}
	.st8{fill:#4DAEDF;}
	.st9{fill:#EF6224;}
	.st10{fill:#F7BFAD;}
	.st11{fill:#92D7F1;}
	.st12{fill:#0E9C49;}
	.st13{fill:#FDC630;}
	.st14{fill:#F15444;}
</style>
<rect class="st0" width="617.8" height="484"/>
<path class="st1" d="M453.5,136.8c0.6-0.1,1.3-0.2,1.8-0.6c2.4-1.7,5.1-2.7,8.1-3.1c0.5,0.1,1.1,0.1,1.6-0.2c2.8,0.6,5.6,1,8.1,2.7
	c3.2,2.1,4.5,5.3,5.1,8.8c0.1,0.4,0.1,0.8,0.2,1.2c0,0.2,0.1,0.4,0.1,0.5c-0.3,2.2-0.9,4.4-1.8,6.5c-0.3,0.1-0.4,0.3-0.5,0.6
	c-2.3,3.7-5.8,5.6-9.8,6.9c-3.2,1.1-6.4,2.1-9.6,3.1c-0.2,0.1-0.3,0.1-0.5,0.2c-6.8,1.5-12.7,4.6-17.9,9.3c-3,2.7-6.4,5.1-10.4,6.3
	c-1.4,0.4-2.8,0.6-4.2,0.9c-0.3-0.1-0.5-0.1-0.8,0.1c-1.9-0.6-3.8-1.3-5.7-1.9c-0.3-0.5-0.8-0.9-1.4-1.1c-7.2-5.7-6.1-16.8-0.1-22.9
	c0.5-0.1,0.8-0.4,1-0.9c4.7-3.6,10.2-4.9,16-5.4c2.4-0.2,4.7-0.9,6.8-2.3c0.7-0.1,1.3-0.6,1.8-1c3.4-2.2,6.9-4.4,10.3-6.7
	C452.7,137.9,453.2,137.5,453.5,136.8L453.5,136.8z"/>
<path class="st2" d="M362,168.1c-2.2-1.9-4.6-2.7-6.9-3.5c-6.1-2.4-9-7.9-7.5-14.3c0.4-2,1-3.9,2.1-5.8c2.2-4.2,6.9-6.1,11.4-4.7
	c1,0.3,1.3,1.2,1.8,1.9c3,3.7,5.3,7.6,6.4,12.2c0.1,0.4,0.4,0.6,0.8,1.3c1-2.4,1.9-4.5,2.8-6.7c2-4.7,5.8-6.8,10.1-5.4
	c5.2,1.6,7.4,5.4,6.5,10.7c-0.7,4.7-2.6,8.2-7.5,9.7c-0.7,0.2-1.5,0.5-2.2,1c-1,0.6-2.8,0.6-2.9,1.8c-0.1,1.3,1.6,1.7,2.6,2.3
	c3.9,2.5,7.9,4.9,11.4,8.1c3.3,3,4.1,6.8,3.1,10.8c-1,3.7-4.3,4.6-7.7,5.1c-2.2,0.3-4.5,0.5-6.7,0.4c-4.5-0.2-6.6-2.1-7.2-6.6
	c-0.3-2.1-0.4-4.1-0.8-6.4c-1.5,5-4.6,8.7-8.7,11.7c-3.7,2.8-7.5,2.2-11.3,0.7c-3.9-1.6-6.9-3.9-7-8.6c0-1.4-0.2-2.9-0.2-4.2
	c-0.3-4.7,1.8-7.6,6.3-9C354.2,169.5,358.1,169.9,362,168.1L362,168.1z"/>
<path class="st3" d="M52.9,146.6c-3.2-1-6.1-0.7-8.8-0.6c-7.6,0.2-13.1-4.3-14.5-11.6c-0.5-2.3-0.7-4.6-0.5-7
	c0.5-5.4,4.5-9.5,9.9-10.1c1.3-0.1,2,0.7,2.8,1.1c4.8,2.5,9.1,5.6,12.3,10c0.2,0.3,0.7,0.5,1.5,1c0-3-0.1-5.6-0.1-8.4
	c0-5.9,3-9.8,8.2-10.3c6.2-0.7,10.2,2.3,11.7,8.3c1.4,5.3,1,9.9-3.4,13.7c-0.7,0.6-1.4,1.3-1.8,2.1c-0.8,1.1-2.6,2-2.2,3.2
	c0.5,1.4,2.4,1,3.8,1.3c5.3,0.8,10.6,1.5,15.7,3.3c4.8,1.7,7.5,5.3,8.2,10c0.7,4.4-2.4,6.8-5.7,8.8c-2.2,1.4-4.5,2.5-6.9,3.4
	c-4.8,1.8-7.9,0.8-10.6-3.7c-1.3-2.1-2.3-4.1-3.8-6.3c0.7,6-0.9,11.3-3.8,16.3c-2.6,4.6-6.9,5.7-11.6,5.9c-4.8,0.1-9.1-0.9-11.3-5.9
	c-0.7-1.5-1.5-3-2.2-4.4c-2.5-4.8-1.6-8.8,2.5-12.4C45.4,151.7,49.7,150.3,52.9,146.6L52.9,146.6z"/>
<path class="st4" d="M204.5,29.4c4.7-2.6,9.5-4.4,14.6-5.6c1.5-0.4,3-0.5,4.3-0.2c3.3,0.8,4.2,2.7,3.1,5.9
	c-2.7,7.9-4.6,10.4-12.3,16.4c3.7-0.8,7.1-2.1,10.7-2.6c5-0.7,8,3,11.6,5.3c1.4,0.9-0.3,1.6-0.9,2c-6.5,4.2-13.3,7.9-19.9,11.9
	c-7.8,4.7-15.9,7.8-25.1,7.8c-5.9,0-11.6-2.5-13.1-9.4c-0.6-2.7-1.8-5.3-2.7-7.9c-0.4-1.2-0.5-2.5-0.1-3.8
	c4.2-13,11.1-24.1,21.5-33.1c2.5-2.2,4.7-4.9,7-7.4c0.7-0.7,1.3-1.7,2.4-1.4c1.2,0.3,0.9,1.5,1.1,2.4
	C208.4,16.5,207.9,22.9,204.5,29.4L204.5,29.4z"/>
<path class="st5" d="M199.5,263.3c6.4,4,11.9,8.3,15.8,14.5c4.2,6.7,2.5,12.9-0.7,19.4c-3.1,6.3-8.6,8.9-14.7,10.9
	c-1.5,0.5-3,1-4.5,1.5c-6.3,2.1-12.2-0.1-16.4-4.8c-7.8-8.8-7.4-20.1,0.7-28.8c1.6-1.7,1.4-2.5-0.5-3.4c-1.5-0.8-2.9-1.7-4.4-2.5
	c-7.8-4-10.7-9.1-10.1-18c0.3-4.3,1.8-8.2,5.1-11.1c1.3-1.1,0.9-1.5-0.1-2.2c-7.9-4.7-10.4-12.6-11.3-20.9
	c-0.9-7.9,3.6-14.2,12.2-17.4c8.9-3.3,17.5-4.2,25.4,2.7c5.4,4.7,6.5,13.4,2.1,18.9c-0.8,1-1,2.2-2,3c-1.5,1.2-0.6,2.3,0.8,2.6
	c6.7,1.4,10.8,5.9,14.3,11.4c2.9,4.5,2.4,9.7-0.5,14.3c-2.5,4-5.6,6.8-9.8,8.6C200.4,262.2,200,262.8,199.5,263.3L199.5,263.3z"/>
<path class="st6" d="M512.4,192.4c-3.8,6.1-7.9,11.3-13.8,15c-6.4,4-12.3,2.4-18.4-0.7c-6-2.9-8.5-8.2-10.4-14
	c-0.5-1.4-1-2.9-1.4-4.3c-2-6,0.1-11.6,4.6-15.6c8.4-7.4,19.1-7,27.4,0.7c1.6,1.5,2.4,1.3,3.2-0.5c0.8-1.4,1.6-2.8,2.4-4.2
	c3.8-7.4,8.7-10.2,17.1-9.6c4.1,0.3,7.8,1.7,10.6,4.8c1,1.2,1.4,0.9,2.1-0.1c4.5-7.5,12-9.9,19.9-10.7c7.5-0.9,13.5,3.4,16.5,11.6
	c3.1,8.5,4,16.6-2.6,24.1c-4.5,5.1-12.7,6.2-18,2c-1-0.8-2.1-1-2.9-1.9c-1.1-1.4-2.2-0.6-2.5,0.8c-1.3,6.4-5.6,10.3-10.8,13.6
	c-4.3,2.8-9.2,2.3-13.6-0.5c-3.8-2.4-6.5-5.3-8.2-9.3C513.5,193.3,512.9,192.9,512.4,192.4L512.4,192.4z"/>
<path class="st7" d="M223.8-23c7-2.3,11.1,2.7,15.9,6.2c0.3,0.3,0.6,0.6,1,1c0.2,0.1,0.3,0.3,0.6,0.5l0,0c0.5,0.9,1,1.5,1.9,1.9
	c3.4,5.9,6.6,11.8,10,17.8c0.3,2.2,0,4.4,1.5,6.2c0.3,1.1,0.5,2.3,0.7,3.4c0,0.5,0.1,0.9,0.1,1.5l0,0c-0.5,0.8-0.5,1.6-0.1,2.5
	c-0.1,3-1.8,5.2-3.6,7.2c-0.8,0.5-1.6,0.8-2.4,1.3c-0.5,0.1-0.9,0.3-1.4,0.4c-1.1-0.4-2.1-0.2-3,0.2c-1.9-0.8-3.6-1.6-5.5-2.4
	c-0.5-0.7-1.2-1.1-2-1.2c-2.3-2-4.6-4.2-6.9-6.3c-0.1-0.5-0.4-0.9-1-1.1c-0.5-0.7-1.2-1.4-1.7-2.1c-0.2-0.7-0.5-1.3-1.2-1.7
	c-0.6-0.9-1.2-1.9-1.8-2.8c-0.2-0.4-0.5-0.8-0.6-1.2c-0.5-0.8-0.8-1.6-1.3-2.4c-0.8-2.1-1.6-4.3-2.3-6.5c-0.7-1.6-1.1-3.1-1.7-4.6
	c-0.2-2.7-0.4-5.5-0.7-8.2c0.5-1.3,0.8-2.7,0.7-4.2c0.7-1.2,1.3-2.3,2-3.5c0.5-0.4,1-0.9,1.5-1.3C223-22.5,223.5-22.7,223.8-23z"/>
<path class="st3" d="M471.3,119.1c-0.4,0.1-0.7,0.1-1.1,0.2c-0.8,0.1-1.4,0.1-2.2,0.2c-0.7-0.1-1.3-0.2-2.1,0
	c-0.6-0.1-1.1-0.2-1.6-0.1l0,0c-0.1,0-0.3,0-0.4-0.1c-1.1-0.1-2.2-0.2-3.3-0.4c-0.1,0-0.4-0.1-0.5-0.1c-0.3,0-0.5-0.1-0.8-0.1
	c-0.1,0-0.3-0.1-0.4-0.1l0,0c-0.1,0-0.2-0.1-0.4-0.1c-0.3,0-0.6-0.1-0.8-0.1c-0.8-0.2-1.6-0.4-2.5-0.7c-0.3-0.1-0.6-0.1-0.8-0.3
	c-1.6-0.6-3.2-1.2-4.8-1.9c-0.4-0.1-0.8-0.4-1.3-0.6c-0.5-0.5-1-0.9-1.6-1.1l-0.1-0.1c-0.1-0.1-0.3-0.1-0.4-0.2l-0.1-0.1
	c-0.1-0.1-0.3-0.1-0.4-0.3c-0.4-0.6-1.3-0.8-1.1-1.8c0.1-0.1,0.3-0.4,0.4-0.6c0.1-0.1,0.2-0.2,0.3-0.3c0.1-0.1,0.2-0.2,0.3-0.3
	c0.6-0.2,1-0.7,1.4-1.2c0.5-0.4,1-0.7,1.4-1.2c0.1-0.1,0.4-0.2,0.6-0.4c0.3,0,0.5-0.2,0.6-0.4c0.2-0.1,0.4-0.3,0.6-0.4
	c0.1-0.1,0.1-0.1,0.1-0.3c0.9-0.8,1.8-1.7,2.8-2.5c0.6-0.2,1.1-0.6,1.4-1.3c0.3-0.3,0.5-0.5,0.8-0.8c1.8-1.1,3.3-2.8,5-4.2
	c0.2-0.2,0.4-0.4,0.6-0.6c0.1-0.1,0.2-0.2,0.2-0.4c0.9-0.7,1.6-1.5,2.5-2.2c0.3,0,0.5-0.2,0.5-0.5l0,0c0.6-0.3,1-0.7,1.4-1.2
	c0.1-0.1,0.4-0.3,0.6-0.4c0.1-0.1,0.2-0.2,0.2-0.4c0.1-0.1,0.1-0.1,0.3-0.1c0.1,0,0.2-0.1,0.2-0.2c0.2-0.2,0.4-0.4,0.6-0.5
	c0.3,0,0.5-0.2,0.6-0.6c0.3-0.3,0.5-0.5,0.8-0.8c0.4-0.1,0.8-0.2,0.9-0.6c0.5-0.2,0.9-0.4,1.1-0.9c0.1-0.1,0.1-0.3,0.2-0.4
	s0.1-0.1,0.2-0.2s0.2-0.2,0.4-0.4c1.3-0.8,2.4-1.8,3.6-3c0.3,0,0.4-0.3,0.5-0.5l0,0c1.2-1.1,2.4-2,3.6-3c0.2-0.2,0.4-0.4,0.6-0.6
	c0.4-0.3,0.9-0.6,1.1-1c0.1-0.1,0.4-0.3,0.6-0.4c0.1-0.1,0.2-0.2,0.3-0.3c0.5-0.2,0.8-0.5,1.1-0.9c0.1-0.1,0.2-0.2,0.4-0.4h0.1
	l0.1-0.1c0.3-0.1,0.5-0.2,0.6-0.5h0.1l0.1-0.1c0.4-0.4,0.8-0.6,1.1-0.9c0.1-0.1,0.4-0.4,0.5-0.5s0.2-0.2,0.4-0.4h0.1l0.1-0.1
	c0.8-0.5,1.5-1.1,2-1.8h0.1l0.1-0.1c0.6-0.5,1.3-1.1,1.9-1.6c0.9-0.6,1.8-1.3,2.5-2.3c0.6-0.3,1-0.7,1.4-1.3
	c0.4-0.1,0.8-0.5,1.1-0.9c0.6-0.6,1.3-1.1,1.9-1.8c0.1-0.1,0.1-0.1,0.3-0.1c0.2-0.1,0.4-0.1,0.6-0.2c0.2,0.2,0.5,0.4,0.7,0.6
	c0.1,0.2,0.2,0.4,0.3,0.6c0.3,0.8,0.8,1.5,1,2.2c0.6,1.5,1.1,3,1.7,4.5l0.3,1c-0.1,0.8,0.3,1.3,0.6,2c0.1,0.2,0.1,0.4,0.2,0.6
	c0.1,1.4,0.3,2.8,0.5,4.2c0,0.1,0,0.3,0,0.4s0.1,0.2,0.1,0.4c0,0.7,0,1.4,0.1,2.2c0,0.3,0.1,0.5,0,0.7c-0.1,0.9-0.1,1.8-0.2,2.7
	c-0.2,0.5-0.2,1.1-0.2,1.6c-0.1,0.2-0.1,0.4-0.1,0.6c-0.1,0.1-0.1,0.2-0.1,0.3c-0.1,0.4-0.1,0.8-0.1,1.1c0,0.1-0.1,0.4-0.1,0.5
	c-0.1,0.1-0.1,0.2,0,0.3c-0.1,0.2-0.1,0.4-0.2,0.5l0,0c0,0.1-0.1,0.3-0.1,0.4l0,0c-0.1,0.1-0.2,0.2-0.1,0.4
	c-0.1,0.2-0.1,0.6-0.2,0.8c0,0.1-0.1,0.4-0.2,0.5c0,0.1-0.1,0.3-0.1,0.4l0,0c0,0.1-0.1,0.3-0.1,0.4l0,0c-0.5,0.8-0.6,1.6-0.9,2.5
	c-0.1,0.2-0.1,0.3-0.2,0.5c0,0.1-0.1,0.3-0.1,0.4l0,0c-0.5,0.9-1,1.8-1.6,2.7l0,0c-0.4,0.2-0.6,0.6-0.6,1.1
	c-0.1,0.3-0.3,0.4-0.4,0.7c-0.7,1.1-1.9,2-2.4,3.4c-0.1,0.1-0.1,0.1-0.2,0.2c-0.5,0.4-0.9,0.8-1.1,1.3c-0.5,0.5-1,1-1.5,1.5
	c-0.3,0-0.5,0.2-0.5,0.5l0,0c-0.1,0.1-0.1,0.1-0.2,0.2c-0.2,0.2-0.4,0.4-0.6,0.5c-0.5,0.4-1,0.8-1.5,1.2c-1.2,0.9-2.5,1.8-3.6,2.6
	c-0.4,0.1-0.9,0.3-1.2,0.8c-0.4,0.2-0.8,0.3-1.2,0.6c-0.4,0.2-0.8,0.3-1.1,0.6c-1.6,0.6-3,1.2-4.7,1.8c-0.6,0.1-1,0.3-1.6,0.4
	c-0.8,0.2-1.6,0.4-2.3,0.6c-0.2,0.1-0.4,0.1-0.6,0.1c-0.4,0.1-0.8,0.2-1.2,0.3C471.8,118.8,471.5,118.9,471.3,119.1L471.3,119.1z"/>
<path class="st7" d="M484.5,52.5c-4.1-1.4-6.6-5-6.3-9.7c0.3-3.3,1.2-6.6,2-9.8c0.9-4-0.2-7.4-2.4-10.7c-1.9-2.7-4.3-4.2-7.6-3.6
	c-3.3,0.6-5.9,2.5-6.9,5.9c-0.6,2.2-1.1,4.4-1.8,6.5c-0.3,1-0.3,2.7-2,2.6c-1.7-0.1-3-1-3.4-2.8c-0.6-2.4-0.6-4.8-0.5-7.3
	c0.1-2.4,0.4-4.9,0.4-7.3c0.1-9.7-7.3-16.7-16.6-15.8c-3.1,0.3-4.7,2.1-4.3,5.2c0.3,2.7,0.6,5.4,0.9,8.1c0.1,1,0.2,2.1-0.9,2.8
	c-1.1,0.6-2.1,0-2.8-0.5c-2.3-1.7-3.5-4.2-3.8-7.1c-0.6-6.8,0.3-13.7-2.7-20.3c-1.9-4.2-4.8-7.1-8.9-9c-3.1-1.4-6.8,1.1-7.2,4.5
	c-0.3,1.9,0.3,3.5,0.7,5.3c0.3,1.4,0.7,2.7,0.8,4.1c0.1,1.2,0.3,2.6-1.2,3.2c-1.6,0.7-2.9-0.1-3.7-1.1c-1.5-1.9-2.9-3.9-4.3-5.8
	c-4.5-6.4-12.7-9.6-20.3-7.8c-6,1.4-11.8,8.7-12.1,15.3c-0.2,6.4,1.3,8.6,7.1,11.2c2,0.8,4,0.7,5.9-0.3c3-1.4,6.1-2.8,9.2-4.2
	c3-1.4,6-0.7,9,0.4c1.3,0.5,1.5,1.7,1.7,3s-0.9,1.8-1.8,2.2c-2.2,0.7-4.4,1.5-6.7,2.1c-3.1,0.8-5.1,2.8-6.3,5.5
	c-1.1,2.4-1,4.7,1,6.7c1,0.9,1.8,1.9,2.7,2.8c4.1,3.9,8.6,4.8,13.8,2c4-2.2,8.3-3.8,13-4.5c1.2-0.2,2.5-0.7,3.1,0.9
	c0.5,1.6-0.5,2.3-1.9,2.8c-2.5,0.9-5.1,1.9-7.5,3c-5.1,2.3-5.7,5.4-2.1,9.6c3.2,3.6,6.8,5.8,11.9,4.5c4.4-1.1,8.8-1.3,12.8-3.8
	c1.8-1.2,4.1-1.2,6.1,0.1c1.1,0.7,1.6,1.7,1.5,3.1c-0.2,1.3-0.9,2-2.1,2.3c-1.3,0.4-2.7,0.7-4.1,1.2c-3.2,1.3-6.3,2.9-6.3,6.9
	c0,4.1,3.7,9.1,7.2,10.3c5,1.8,9.8,1.5,14.4-1.5c3.1-2,6.4-3.8,10-5.1c5.2-1.8,10.3-2.2,15.3,0.8c2.3,1.4,4.9,2.5,7.2,3.9
	c1.2,0.8,1.9,0.7,2.5-0.8c0.3-0.9,0.8-1.7,1.2-2.5C488.8,57.1,487.9,54.5,484.5,52.5L484.5,52.5z"/>
<path class="st8" d="M234.5,131.5c-13.2-0.6-14.2-4.6-14.5-16.4c-0.2-8.8,6-14.7,13.9-14.6c10.1,0.2,14.6,9.8,14.4,17.7
	C248.1,125.1,241.3,132.4,234.5,131.5L234.5,131.5z"/>
<path class="st8" d="M427.2,283.1c-0.7,2.1-1.7,4.3-2.1,6.4c-1.2,6.1-4.2,11.6-6.1,17.5c-4.2-1.7-5.5-5.2-6.5-9.2
	c-1.6-6.5,0.6-12.7,2.2-18.9c0.2-0.9,0.6-1.8,0.5-3c-1.4,1.7-3.3,3.2-4.2,5.1c-2.7,6-7.6,9.5-13.2,12.1c-2.6,1.2-5.4,0.5-8.1,0
	c-1.4-0.3-0.6-1.3-0.4-2c2.3-6.5,5.8-12.4,9.5-18.3c5.9-9.2,13-17.4,21-24.8c1.9-1.7,1.3-2.8-0.4-3c-5-0.5-5.6-4.6-6.6-8.1
	c-0.5-1.9,0.2-4.3,0.7-6.5c1.1-4.9,3.2-9.5,5.4-14.1c1.3-2.8,3.1-5.5,4.9-8.1c2.4-3.5,6.1-4.5,9.9-4.4c7.7,0.4,14.9,2.2,21.6,5.4
	c5.4,2.5,7,6.2,5.6,12.3c-0.2,0.9-0.2,1.8-0.2,2.7c-0.4,8-1.8,15.8-5,23.5c-1.6,3.8-4.5,5.6-8.3,5.8c-1.9,0.1-3.8,0-5.6-0.2
	c-2.5-0.3-3.2,0.2-3,2.6c1.3,13.7,0.2,27.6-0.2,41.5c-0.1,1.8,0.2,3.6,0.3,5.4c0,1.3,0.1,2.1-1.9,1.3c-6-2.3-7.9-7.4-8.9-13.2
	C427.5,288.5,427.4,285.8,427.2,283.1c-0.1,0-0.1-0.1-0.2-0.1h-0.1C427,283,427.1,283.1,427.2,283.1L427.2,283.1z"/>
<path class="st4" d="M619.9-6.1c1.4-2.2,3.2-4.4,4.3-6.7c3.2-6.6,8.2-12.1,12.2-18.3c4.3,3.2,4.8,7.6,4.7,12.5
	c-0.1,7.9-4.4,14.4-8.1,21c-0.5,1-1.2,1.9-1.5,3.3c2.1-1.5,4.7-2.7,6.3-4.6c4.9-6.1,11.5-8.7,18.7-10c3.3-0.6,6.3,1,9.3,2.4
	c1.5,0.8,0.3,1.7-0.1,2.4c-4.6,6.8-10.3,12.5-16.3,18.2c-9.5,8.8-20.1,16.1-31.4,22.3c-2.7,1.4-2.3,2.8-0.4,3.6
	c5.6,2.1,5.1,6.9,5.2,11.2c0,2.3-1.5,4.9-2.7,7.3c-2.7,5.3-6.5,10-10.4,14.6c-2.3,2.8-5.2,5.4-8,7.8c-3.8,3.3-8.3,3.4-12.7,2.1
	c-8.7-2.7-16.5-6.9-23.2-12.6c-5.5-4.5-6.2-9.2-2.8-15.8c0.5-1,0.8-2,1-3c2.8-9.1,6.7-17.6,12.7-25.5c3-3.9,6.8-5.1,11.2-4.2
	c2.2,0.4,4.4,1.1,6.4,1.9c2.8,1.1,3.7,0.7,4.2-2.1c2.6-16.1,7.9-31.7,12.5-47.6c0.6-2,0.8-4.2,1.3-6.3c0.4-1.5,0.5-2.4,2.6-0.9
	c6.2,4.4,6.9,10.8,6.3,17.8C621.2-12.3,620.5-9.2,619.9-6.1c0.1,0,0.1,0.1,0.2,0.2h0.1C620.1-5.9,620.1-6,619.9-6.1L619.9-6.1z"/>
<path class="st4" d="M420.3,106.5c-12.1-0.5-13.1-4.2-13.4-15.1c-0.2-8.1,5.5-13.5,12.8-13.4c9.3,0.2,13.4,9,13.3,16.3
	C432.8,100.6,426.5,107.3,420.3,106.5L420.3,106.5z"/>
<path class="st3" d="M426.3,326.2c1.7,1.2,3.4,2.5,5.2,3.5c1.6,0.9,1.7,2,1.1,3.6c-1.2,3.5-2.8,6.7-2.1,10.8c0.7,4.1,2.6,6.9,5.9,9
	c0.9,0.6,1.8,1.3,2.7,1.8c1.4,0.8,1.6,1.6,0.7,3c-2.3,3.9-4.5,7.9-6.6,11.9c-0.6,1.2-1.2,1.8-2.5,1c-6.3-3.4-12.2-7.4-16.7-13
	c-5.2-6.6-5.4-14-2.5-21.7c1.7-4.5,4.3-8.6,6.2-13c0.7-1.6,1.6-2,3.2-0.8C422.7,323.8,424.6,324.9,426.3,326.2
	C426.4,326.2,426.4,326.2,426.3,326.2L426.3,326.2z"/>
<path class="st9" d="M212.2,200.1c0.4-7.9,4.8-12.8,11.3-15.6c6.3-2.8,12.8-1.4,18.7,2.1c5.1,3,7.9,7.1,7.6,13
	c-0.4,6.4-4.2,10.8-10.7,12.4c-3.1,0.8-6.2,1.1-9.3,1.5c-5.5,0.7-9.2-2.3-13.1-5.2C213.5,205.9,211.8,203.2,212.2,200.1L212.2,200.1
	z M223.5,197.7c0.3,1.8,0.2,4.1,2.2,4.9c3,1.2,6.3,1.7,9.6,0.1c2.8-1.4,3.7-4.6,1.6-6.9c-2-2.2-4.7-3.4-7.7-3.1
	C225.9,193,223.2,194.8,223.5,197.7z"/>
<path class="st9" d="M626,158.1c8.5,6.8,10.4,15.6,8.3,25.1c-1.9,9.3-8.7,15.4-17.3,19.1c-7.4,3.3-14.2,3.1-20.6-1.9
	c-6.8-5.6-8.7-13.3-5.2-21.8c1.6-4.1,3.7-7.8,5.8-11.6c3.6-6.7,9.9-8.4,16.3-10.4C618.5,154.9,622.9,155.1,626,158.1L626,158.1z
	 M619.6,172.6c-2.2-1.1-4.7-3.1-7.2-1.5c-3.7,2.4-6.9,5.7-7.8,10.6c-0.7,4.2,2.2,7.8,6.4,7.3c4.1-0.5,7.5-2.5,9.6-6.1
	C622.9,179,623.1,174.6,619.6,172.6z"/>
<path class="st1" d="M195.2,333.1c4.3,8.5,7.5,17.3,8.4,27c0.7,7.5-6.3,11.2-12,10.9c-8.5-0.5-11.3-7.2-14.3-13.3
	c-3.1-6.1-5.3-12.6-8-18.8c-0.5-1.3-0.7-1.9,0.7-2.8c6.2-3.7,12.7-6.8,19.3-9.9c1.8-0.8,2.4-0.4,3.1,1.1
	C193.1,329.3,194.2,331.2,195.2,333.1z"/>
<path class="st3" d="M171.3,463.8c-0.2-0.4-0.4-0.9-0.8-1.3c-0.4-0.9-0.8-1.9-1.2-2.7c-0.2-1-0.4-1.9-0.9-2.8c0-0.8-0.2-1.5-0.6-2.2
	l0,0c0-0.2,0-0.4-0.1-0.6c-0.4-1.5-0.7-3.1-1-4.6c0-0.2-0.1-0.5-0.1-0.7c0-0.4-0.1-0.7-0.2-1.1c0-0.2,0-0.4,0-0.7V447
	c0-0.2,0-0.4,0-0.5c0-0.4-0.1-0.8-0.2-1.1c-0.1-1.2-0.1-2.3-0.2-3.5c0-0.4,0-0.9,0-1.3c0.2-2.4,0.2-4.8,0.4-7.1
	c0.1-0.6,0.1-1.3,0.2-1.9c0.5-0.8,0.7-1.7,0.7-2.6v-0.1c0-0.2,0.1-0.4,0.1-0.6v-0.1c0.1-0.2,0.1-0.4,0.2-0.6
	c0.6-0.8,0.5-2.1,1.9-2.2c0.3,0.1,0.6,0.3,0.9,0.4c0.2,0.1,0.3,0.2,0.5,0.3c0.2,0.1,0.3,0.1,0.5,0.2c0.5,0.8,1.4,1,2.3,1.3
	c0.6,0.6,1.4,1,2.3,1.3c0.2,0.2,0.5,0.4,0.7,0.6c0.2,0.4,0.5,0.5,0.8,0.6c0.2,0.2,0.5,0.5,0.7,0.7c0.2,0.1,0.3,0.1,0.5,0.2
	c1.5,0.8,3,1.7,4.5,2.6c0.5,0.8,1.3,1.2,2.3,1.2c0.4,0.3,0.9,0.5,1.3,0.7c2.4,2,5.3,3.1,7.9,4.7c0.3,0.2,0.6,0.4,0.9,0.5
	c0.2,0.1,0.3,0.1,0.5,0.2c1.3,0.8,2.6,1.6,3.9,2.4c0.2,0.3,0.5,0.5,0.9,0.5l0,0c0.6,0.7,1.4,1,2.3,1.3c0.2,0.2,0.5,0.4,0.7,0.7
	c0.2,0.1,0.3,0.1,0.5,0.2c0.1,0.1,0.2,0.2,0.4,0.3c0,0.2,0.2,0.3,0.4,0.3c0.3,0.2,0.6,0.4,0.9,0.6c0.2,0.4,0.5,0.6,0.9,0.6
	c0.4,0.3,0.9,0.5,1.3,0.7c0.3,0.4,0.6,0.9,1.3,0.9c0.4,0.6,1,1,1.7,1c0.2,0.1,0.4,0.1,0.6,0.2c0.1,0.1,0.3,0.2,0.4,0.3
	c0.2,0.1,0.4,0.2,0.6,0.3c1.7,1.3,3.5,2.4,5.5,3.4c0.2,0.4,0.5,0.5,0.9,0.5l0,0c1.9,1.1,3.7,2.3,5.6,3.4c0.3,0.2,0.6,0.4,0.9,0.6
	c0.5,0.5,1.1,0.9,1.9,1c0.3,0.2,0.5,0.4,0.8,0.6c0.2,0.1,0.4,0.2,0.5,0.2c0.4,0.6,1,0.8,1.7,1c0.2,0.1,0.4,0.2,0.6,0.3l0.1,0.2h0.2
	c0.2,0.3,0.5,0.6,0.9,0.6l0.1,0.2l0.2,0.1c0.6,0.4,1.1,0.7,1.8,1.1c0.3,0.2,0.6,0.4,0.9,0.6c0.2,0.1,0.4,0.2,0.6,0.3l0.1,0.2h0.2
	c0.9,0.8,2.1,1.5,3.3,1.9l0.1,0.2h0.2c1,0.6,2,1.2,3,1.8c1.3,0.9,2.6,1.8,4.1,2.3c0.6,0.6,1.4,1.1,2.3,1.4c0.4,0.6,1,0.7,1.7,1
	c1,0.5,2.2,1.2,3.2,1.7c0.1,0.1,0.2,0.2,0.4,0.3c0.2,0.2,0.4,0.5,0.6,0.8c-0.2,0.4-0.3,0.8-0.4,1.1c-0.2,0.2-0.4,0.4-0.6,0.6
	c-0.9,0.8-1.6,1.6-2.5,2.4c-1.7,1.4-3.5,2.8-5.2,4.3l-1.2,0.8c-1,0.2-1.6,1-2.4,1.6c-0.3,0.2-0.6,0.3-0.8,0.5
	c-1.8,0.8-3.6,1.7-5.4,2.5c-0.2,0-0.4,0.1-0.6,0.1c-0.1,0.1-0.3,0.1-0.4,0.2c-1,0.4-1.9,0.7-2.9,1c-0.3,0.1-0.7,0.2-1,0.4
	c-1.2,0.4-2.4,0.6-3.6,1c-0.8-0.1-1.4,0.2-2.1,0.5c-0.3,0-0.5,0-0.8,0c-0.1,0-0.3,0-0.4,0c-0.5,0.1-1,0.3-1.6,0.3
	c-0.2,0-0.4,0-0.7,0c-0.2,0-0.3,0-0.4,0.1c-0.2,0-0.5,0-0.7,0l0,0c-0.2,0-0.4,0-0.7-0.1l0,0c-0.2-0.2-0.4-0.2-0.6,0
	c-0.4,0-0.7,0-1.1,0.1c-0.2,0-0.5,0-0.7,0s-0.4-0.1-0.7-0.1l0,0c-0.2,0-0.4,0-0.6-0.1h-0.1c-1.2-0.3-2.5-0.2-3.7,0
	c-0.2,0-0.5-0.1-0.7-0.1s-0.4-0.1-0.7-0.1l0,0c-1.4-0.3-2.9-0.5-4.4-0.9l0,0c-0.5-0.4-1-0.5-1.7-0.4c-0.4-0.1-0.7-0.2-1.1-0.2
	c-1.9-0.5-3.5-1.7-5.5-1.7c-0.1-0.1-0.3-0.2-0.4-0.2c-0.6-0.5-1.4-0.8-2.2-0.8c-0.8-0.5-1.8-0.9-2.6-1.4c-0.1-0.4-0.4-0.5-0.8-0.5
	l0,0c-0.1-0.1-0.3-0.2-0.4-0.2c-0.3-0.2-0.6-0.4-0.9-0.6c-0.7-0.5-1.5-1-2.3-1.5c-1.7-1.2-3.4-2.4-5.1-3.6c-0.4-0.6-0.9-1.1-1.6-1.3
	c-0.4-0.5-0.9-1-1.3-1.3c-0.4-0.4-0.8-0.9-1.3-1.2c-1.5-1.8-3-3.5-4.5-5.4c-0.4-0.6-0.9-1.3-1.3-1.8c-0.7-1-1.3-1.9-2-2.9
	c-0.1-0.3-0.3-0.5-0.4-0.8c-0.3-0.5-0.7-1-1-1.4C171.9,464.4,171.7,464.1,171.3,463.8L171.3,463.8z"/>
<path class="st10" d="M187.4,173.3c-3.3-1.9-6.4-3.9-9.8-5.6c-3-1.5-3.3-3.4-2.5-6.3c1.7-6.4,4.1-12.5,2.3-19.6
	c-1.8-7.2-5.6-11.9-11.8-15.3c-1.7-0.9-3.4-2-5.1-2.8c-2.7-1.2-3-2.6-1.7-5.3c3.7-7.3,7-14.8,10.2-22.3c0.9-2.2,1.8-3.3,4.3-2.2
	c11.7,5.2,22.9,11.5,31.7,20.9c10.3,11,11.7,24.3,7.5,38.5c-2.5,8.4-6.4,16.1-9.4,24.2c-1,2.9-2.7,3.8-5.5,1.8
	C194.3,177.1,190.8,175.3,187.4,173.3L187.4,173.3L187.4,173.3z"/>
<path class="st7" d="M397.8,399.3c8.7-12.7,21-16.4,34.5-14.4c13.3,1.8,22.6,10.6,28.9,22.5c5.5,10.3,6,19.9-0.6,29.3
	c-7.1,10.3-17.8,13.5-30.4,9.6c-5.9-1.8-11.4-4.4-17-7c-9.8-4.4-12.9-13.2-16.5-22C394.2,410.3,394.2,404.2,397.8,399.3L397.8,399.3
	z M419.1,407c-1.3,3.3-3.8,7.1-1.3,10.4c3.8,5.1,8.8,9.3,15.7,9.9c6.1,0.6,10.9-3.9,9.6-9.8c-1.1-5.7-4.3-10.4-9.6-13.1
	C427.7,401.6,421.5,401.7,419.1,407z"/>
<path class="st3" d="M77.8,198.3c-4.4-0.2-4.7-1.5-4.9-5.5c-0.1-3,2-4.9,4.6-4.9c3.4,0.1,4.9,3.3,4.8,5.9
	C82.4,196.2,80.1,198.6,77.8,198.3L77.8,198.3z"/>
<path class="st1" d="M372.1,35.4c-4.4-0.2-4.7-1.5-4.9-5.5c-0.1-3,2-4.9,4.6-4.9c3.4,0.1,4.9,3.3,4.8,5.9
	C376.6,33.2,374.4,35.7,372.1,35.4L372.1,35.4z"/>
<path class="st1" d="M544.6,65.1c-4.4-0.2-4.7-1.5-4.9-5.5c-0.1-3,2-4.9,4.6-4.9c3.4,0.1,4.9,3.3,4.8,5.9
	C549.1,62.9,546.9,65.4,544.6,65.1L544.6,65.1z"/>
<path class="st1" d="M595.1,471.7c-4.4-0.2-4.7-1.5-4.9-5.5c-0.1-3,2-4.9,4.6-4.9c3.4,0.1,4.9,3.3,4.8,5.9
	C599.6,469.5,597.4,472,595.1,471.7L595.1,471.7z"/>
<path class="st8" d="M97.7,70.3c-4.4-0.2-4.7-1.5-4.9-5.5c-0.1-3,2-4.9,4.6-4.9c3.4,0.1,4.9,3.3,4.8,5.9
	C102.2,68.1,100,70.6,97.7,70.3L97.7,70.3z"/>
<path class="st10" d="M402.4,208.9c-4.4-0.2-4.7-1.5-4.9-5.5c-0.1-3,2-4.9,4.6-4.9c3.4,0.1,4.9,3.3,4.8,5.9
	C407,206.8,404.7,209.2,402.4,208.9L402.4,208.9z"/>
<path class="st11" d="M474.3,399.8c-4.4-0.2-4.7-1.5-4.9-5.5c-0.1-3,2-4.9,4.6-4.9c3.4,0.1,4.9,3.3,4.8,5.9
	C478.9,397.7,476.6,400.1,474.3,399.8L474.3,399.8z"/>
<path class="st11" d="M571.1,376.4c-4.4-0.2-4.7-1.5-4.9-5.5c-0.1-3,2-4.9,4.6-4.9c3.4,0.1,4.9,3.3,4.8,5.9
	C575.7,374.3,573.4,376.7,571.1,376.4L571.1,376.4z"/>
<path class="st10" d="M99,298.1c-4.4-0.2-4.7-1.5-4.9-5.5c-0.1-3,2-4.9,4.6-4.9c3.4,0.1,4.9,3.3,4.8,5.9
	C103.6,296,101.3,298.4,99,298.1L99,298.1z"/>
<path class="st10" d="M15.5,375.4c-4.4-0.2-4.7-1.5-4.9-5.5c-0.1-3,2-4.9,4.6-4.9c3.4,0.1,4.9,3.3,4.8,5.9
	C20.1,373.3,17.8,375.7,15.5,375.4L15.5,375.4z"/>
<path class="st12" d="M221.4,441.5c-4.4-0.2-4.7-1.5-4.9-5.5c-0.1-3,2-4.9,4.6-4.9c3.4,0.1,4.9,3.3,4.8,5.9
	C226,439.3,223.7,441.8,221.4,441.5L221.4,441.5z"/>
<path class="st12" d="M500,149.8c-4.4-0.2-4.7-1.5-4.9-5.5c-0.1-3,2-4.9,4.6-4.9c3.4,0.1,4.9,3.3,4.8,5.9
	C504.6,147.6,502.3,150.1,500,149.8L500,149.8z"/>
<path class="st12" d="M399.2,458.7c-6.4-0.3-6.8-2.2-7.1-8c-0.1-4.4,2.9-7.1,6.7-7.1c4.9,0.1,7.1,4.8,7,8.6
	C405.8,455.5,402.5,459.1,399.2,458.7L399.2,458.7z"/>
<path class="st5" d="M145.6,463.9c-4.4-0.2-4.7-1.5-4.9-5.5c-0.1-3,2-4.9,4.6-4.9c3.4,0.1,4.9,3.3,4.8,5.9
	C150.2,461.7,147.9,464.2,145.6,463.9L145.6,463.9z"/>
<path class="st6" d="M221.6,413.3c-1.8,2.6-4.5,2.3-6.7,2.9c-3.6,1.1-7.1,2.3-10.8,3c-8.3,1.8-14.3-2.5-18.8-8.6
	c-3.6-4.9-2.6-10.5-0.4-15.8c2.5-6.2,2.6-6.1,8.1-2.2C202.5,399.5,212.1,406.5,221.6,413.3L221.6,413.3z"/>
<path class="st4" d="M554.9,388.2c-2.6,3.7-6.4,3.3-9.5,4.1c-5.1,1.6-10.1,3.3-15.4,4.3c-11.8,2.6-20.3-3.6-26.7-12.2
	c-5.1-7-3.7-14.9-0.6-22.5c3.6-8.8,3.7-8.7,11.5-3.1C527.7,368.5,541.3,378.5,554.9,388.2L554.9,388.2z"/>
<path class="st2" d="M40.7,466.5c-4.4-0.2-4.7-1.5-4.9-5.5c-0.1-3,2-4.9,4.6-4.9c3.4,0.1,4.9,3.3,4.8,5.9
	C45.2,464.3,42.9,466.8,40.7,466.5L40.7,466.5z"/>
<path class="st2" d="M527.5,228.7c-4.4-0.2-4.7-1.5-4.9-5.5c-0.1-3,2-4.9,4.6-4.9c3.4,0.1,4.9,3.3,4.8,5.9
	C532,226.5,529.7,229,527.5,228.7L527.5,228.7z"/>
<path class="st2" d="M20.2,108c-4.4-0.2-4.7-1.5-4.9-5.5c-0.1-3,2-4.9,4.6-4.9c3.4,0.1,4.9,3.3,4.8,5.9
	C24.7,105.8,22.4,108.3,20.2,108L20.2,108z"/>
<path class="st6" d="M128,33.6c-2.9,2.5-5.2,4.6-7.6,6.4c-6.2,4.8-12,4.8-16.6,0.2c-6.2-6.3-6.5-11.4-1.3-18.3
	c2.4-3.2,5.1-5.9,8.6-8.6c-3.9-1.3-7.4-2.4-10.8-3.5c-4.3-1.5-8-3.9-8.6-8.8c-0.8-6,1.1-11.2,6.2-14.8c2.6-1.8,5.2-0.6,7.6,0.4
	c3,1.3,5.8,3,8.6,4.5c1.3,0.7,2.7,2.5,4,1.1c0.9-0.9-0.2-2.7-1-3.8c-2.2-3.1-3-6.6-3.8-10.2c-1.2-5.5,1.1-10.2,6.4-12.2
	c5.6-2.2,11.1-1.6,16.2,1.6c4.4,2.7,4.4,6.9,3.5,11.3c-0.7,3.7-1.7,7.2-1.9,11.5c4.4-2.5,6.4-6.9,10.1-9.4
	c4.9-3.3,10.8-3.4,14.9,0.1c4.5,3.9,6,11.4,3.3,16.1c-0.9,1.6-2.2,3-3.8,3.8c-1.5,0.7-3,1.4-5,2.2c3.6,1.8,7.2,1.3,10.5,2.3
	c8,2.4,10.7,7.2,8.7,15.4c-1.5,6-8.8,9.8-15.6,8.1c-3.3-0.8-6.5-1.9-9.3-3.9c-0.8-0.5-1.7-1.4-2.6-0.6c-0.9,0.8-0.4,1.9,0,2.8
	c1.6,3.6,3,7.3,3,11.4c0,6.4-4.8,11-11.4,11c-7.4,0-12.5-4.4-12.5-10.8C128,37.3,128,35.8,128,33.6z"/>
<path class="st6" d="M376.8,107.2c-6.7-0.3-7.3-2.4-7.4-8.4c-0.1-4.5,3-7.5,7.1-7.5c5.2,0.1,7.5,5,7.4,9.1
	C383.8,103.9,380.3,107.6,376.8,107.2L376.8,107.2z"/>
<path class="st6" d="M91.7,410.5c-6.7-0.3-7.3-2.4-7.4-8.4c-0.1-4.5,3-7.5,7.1-7.5c5.2,0.1,7.5,5,7.4,9.1
	C98.7,407.2,95.2,410.9,91.7,410.5L91.7,410.5z"/>
<path class="st6" d="M146.4,281c-6.7-0.3-7.3-2.4-7.4-8.4c-0.1-4.5,3-7.5,7.1-7.5c5.2,0.1,7.5,5,7.4,9.1
	C153.4,277.7,149.9,281.4,146.4,281L146.4,281z"/>
<path class="st6" d="M578.3,102.4c-3.8-0.2-4.2-1.4-4.2-4.8c-0.1-2.6,1.7-4.3,4.1-4.3c3,0.1,4.3,2.9,4.2,5.2
	C582.3,100.5,580.3,102.6,578.3,102.4L578.3,102.4z"/>
<path class="st5" d="M29.6,253.9c-6.7-0.3-7.3-2.4-7.4-8.4c-0.1-4.5,3-7.5,7.1-7.5c5.2,0.1,7.5,5,7.4,9.1
	C36.6,250.6,33.1,254.3,29.6,253.9L29.6,253.9z"/>
<path class="st3" d="M586.5,297.2c-6.7-0.3-7.3-2.4-7.4-8.4c-0.1-4.5,3-7.5,7.1-7.5c5.2,0.1,7.5,5,7.4,9.1
	C593.5,293.9,590,297.6,586.5,297.2L586.5,297.2z"/>
<path class="st8" d="M329.1,499.2c-6.2,6.3-12.5,11.6-20.6,14.5c-8.7,3.1-15.4-0.4-22-5.7c-6.5-5.1-8-12.1-8.7-19.6
	c-0.2-1.8-0.4-3.7-0.6-5.5c-0.9-7.8,3.2-13.9,9.6-17.5c12-6.7,24.9-3.4,32.8,8.1c1.6,2.3,2.5,2.2,4,0.3c1.3-1.5,2.7-2.9,4-4.4
	c6.6-7.9,13.2-9.9,23.2-7c4.9,1.4,9,4.1,11.4,8.7c1,1.8,1.5,1.4,2.5,0.4c7.4-7.8,17-8.7,26.9-7.7c9.4,0.9,15.4,7.7,16.9,18.4
	c1.6,11,0.4,21.2-9.5,28.5c-6.8,5-17.1,4.1-22.2-2.4c-0.9-1.1-2.3-1.7-3-3.1c-1-2-2.5-1.3-3.2,0.3c-3.3,7.3-9.5,10.9-16.7,13.5
	c-5.9,2.1-11.7,0.3-16.3-4.2c-3.9-3.9-6.4-8.1-7.4-13.4C330.1,500.5,329.5,499.9,329.1,499.2L329.1,499.2z"/>
<path class="st7" d="M115,249c0.3,16.8-13.7,31.4-31.8,31.4c-17.4,0-31.3-15.1-31.1-31.1c0.2-18.7,14.3-31.5,31.5-31.7
	C101.8,217.5,115.7,232.5,115,249z"/>
<path class="st5" d="M658.1,366.8c0.4,19.1-15.6,35.8-36.2,35.8c-19.8,0-35.6-17.2-35.5-35.5c0.2-21.3,16.3-35.9,35.9-36.1
	C643,330.8,658.8,347.9,658.1,366.8z"/>
<path class="st1" d="M32,481.5c0.3,13.9-11.4,26.1-26.4,26.1c-14.4,0-26-12.5-25.8-25.8c0.1-15.5,11.9-26.2,26.1-26.3
	C21,455.4,32.5,467.8,32,481.5z"/>
<path class="st8" d="M557,11.8c0.3,16.8-13.7,31.4-31.8,31.4c-17.4,0-31.3-15.1-31.1-31.1c0.2-18.7,14.3-31.5,31.5-31.7
	C543.8-19.7,557.7-4.7,557,11.8z"/>
<path class="st2" d="M571.9,311.9c5,8.5,4.1,19.4-2.2,27.5c-7.7,10-19.6,12-31.2,5.4c-3.5-2-6.9-4.3-9.7-7.2
	c-7.4-7.5-16.4-11.7-26.5-13.9c-4.2-0.9-4.2-1-3.1-5.2c2-7.4,4-14.7,5.9-22.1c0.5-1.9,1.1-2.2,3-1.6c6.7,2.2,13.3,4.6,20.4,4.8
	c5.3,0.2,10.7,0,16,0c7.7,0,14.9,1.8,21.5,5.9C568.6,307.2,570.6,309.4,571.9,311.9z"/>
<path class="st1" d="M98.9,203.7c3.4,4.1,8,6.5,12.8,8.6l0,0c0.1,0.1,0.3,0.2,0.4,0.4h0.1c0.5,0,1.2-0.1,1.2,0.7
	c3.9,2,7.8,4.3,12.2,5.4c5.4,1.4,10,0,13.4-4.5c0.9-1.2,1.8-2.4,2.6-3.8c9.2-15.5,15.7-32.2,20.2-49.6c1.1-4.1,2.1-8.3,1.3-12.7
	c-0.8-4.2-4.2-6.5-8.4-5.6c-0.9,0.2-1.8,0.5-2.7,0.8c-4.5,1.9-8.3,4.8-11.9,8c-9.9,8.9-19.4,18.2-28.5,27.9c-3,3.1-6,6.2-8.3,9.9
	c-2.2,2.3-3.9,5-5.2,7.9C97.1,199.4,97.2,201.7,98.9,203.7z"/>
<path class="st4" d="M77.5,496c-9.4,0-18.9,0-28.3,0c-0.4,0-1,0.2-1.2-0.2c-0.1-0.2,0.3-0.7,0.5-1c4.9-8.3,9.9-16.7,15.9-24.3
	c7.9-9.9,17.5-17.4,29.5-21.6c1.8-0.6,1.9-0.6,2.3,1.3c1.2,5.1,2.2,10.3,3.6,15.4c1.6,5.7,3.1,11.5,4.4,17.3
	c0.9,3.9,1.9,7.9,2.9,11.8c0.3,1.2,0,1.4-1.2,1.4C96.4,495.9,87,496,77.5,496L77.5,496z"/>
<path class="st1" d="M39.9,11.5c-1.4-4-3.1-8-3.5-12.3c-0.2-1.9,0.5-2.7,2.5-2.9c0.2,0,0.5,0,0.7-0.1c2.1-1.2,4.6-1.6,6.8-2.3
	c2.1-0.6,4-1.7,6.3-1.8c0.3,0,0.6-0.2,0.9-0.3c2.3-0.9,4.6-1.6,7-2.1c0.5-0.1,1-0.3,1.5-0.5c3.3-1.4,3.9-1.2,5.1,2.1
	c0.1,0.4,0.2,0.9,0.5,1.2C68-7.3,68.1-7,68.2-6.7c3.1,8,6.2,16.1,9.3,24.1c0.1,1.3,0.6,2.5,1.4,3.5c1.4,3.6,2.7,7.1,4.1,10.7
	c0.5,1.2,0,1.9-1.1,2.3c-8.1,2.9-16.2,5.7-24.2,8.6c-0.8,0.3-1.5,0.5-2.3,0.8c-1.6,0.6-2.4,0.3-3.4-1c-1.8-2.3-2.8-5-3.8-7.6
	c-2.7-7.3-5.3-14.7-7.9-22C40.5,12.1,40.3,11.8,39.9,11.5z"/>
<path class="st10" d="M476.1,249.8c-1.4-4-3.1-8-3.5-12.3c-0.2-1.9,0.5-2.7,2.5-2.9c0.2,0,0.5,0,0.7-0.1c2.1-1.2,4.6-1.6,6.8-2.3
	c2.1-0.6,4-1.7,6.3-1.8c0.3,0,0.6-0.2,0.9-0.3c2.3-0.9,4.6-1.6,7-2.1c0.5-0.1,1-0.3,1.5-0.5c3.3-1.4,3.9-1.2,5.1,2.1
	c0.1,0.4,0.2,0.9,0.5,1.2c0.3,0.1,0.4,0.5,0.5,0.8c3.1,8,6.2,16.1,9.3,24.1c0.1,1.3,0.6,2.5,1.4,3.5c1.4,3.6,2.7,7.1,4.1,10.7
	c0.5,1.2,0,1.9-1.1,2.3c-8.1,2.9-16.2,5.7-24.2,8.6c-0.8,0.3-1.5,0.5-2.3,0.8c-1.6,0.6-2.4,0.3-3.4-1c-1.8-2.3-2.8-5-3.8-7.6
	c-2.7-7.3-5.3-14.7-7.9-22C476.7,250.4,476.6,250,476.1,249.8z"/>
<g>
	<path class="st10" d="M137.3,425.6L137.3,425.6L137.3,425.6L137.3,425.6z"/>
	<path class="st10" d="M137.6,426.4L137.6,426.4C137.6,426.4,137.7,426.4,137.6,426.4C137.7,426.4,137.6,426.4,137.6,426.4z"/>
	<path class="st10" d="M164.3,371.3c-2.9-5-7.2-7.8-12.6-8.5c-7-0.9-13.1,2.9-18.8,8c-0.8,0.7-0.4,1.2-0.1,1.8
		c1.4,3.2,3,6.3,4.1,9.7c1.3,3.9,0.5,5.9-3,8.1c-2.5,1.6-5.2,2.5-7.7,3.7c-5.2,2.5-9.9,5.8-13.4,11.2c-7.5,11.6-7.4,27.3,0.3,36.9
		c3,3.7,6.4,6.9,11.2,7.7c-0.1-0.2-0.4-0.3-0.4-0.5c0-0.4,0.3-0.1,0.4-0.1c1.4,0.2,2.8,0.5,4.3-0.5c1.4-1,2.2-2.4,3.1-3.9
		c1.1-1.8,1.4-4.2,3.2-5.6c1.2-1,1.7-2.8,2.2-4.3c0.3-0.8,0.8-1.3,1.1-2c1-2.1,0-3.7,0-5.5l0,0c-0.1-0.1-0.1-0.3-0.2-0.4l0,0
		c-0.2-0.1-0.4-0.2-0.4-0.6c-0.4-0.1-0.5-0.4-0.3-0.8c-0.1-0.2-0.1-0.3-0.2-0.5c-0.2-0.5-0.3-1-0.5-1.6c-1.7-4.7-0.7-7.3,3.5-9.9
		c1.9-1.2,4-1.6,6-2.6c0.1-0.1,0.3-0.2,0.4-0.3c0.1-0.1,0.3-0.1,0.4-0.2h0.1h0.1c4.2-1.3,8.1-3.5,11.7-6.4
		C169.6,395.9,170.4,380.1,164.3,371.3z"/>
</g>
<g>
	<path class="st1" d="M570.9,256.7L570.9,256.7L570.9,256.7L570.9,256.7z"/>
	<path class="st1" d="M570.1,257.6L570.1,257.6C570.1,257.7,570.1,257.7,570.1,257.6C570.1,257.7,570.1,257.6,570.1,257.6z"/>
	<path class="st1" d="M654.6,252.4c4.1-6.9,4.5-14,1.7-20.9c-3.7-9-12.4-13.8-22.3-17.3c-1.3-0.5-1.7,0.3-2.2,1
		c-2.9,3.9-5.5,7.9-8.9,11.6c-3.9,4.2-6.8,4.6-11.8,1.9c-3.6-1.9-6.5-4.5-9.7-6.8c-6.6-4.5-13.8-8-22.6-8.6
		c-19.1-1.2-37.9,9.6-44.3,25.3c-2.5,6.2-4,12.4-1.7,18.7c0.1-0.3,0.1-0.7,0.3-0.8c0.5-0.2,0.3,0.3,0.4,0.4c0.7,1.8,1.3,3.7,3.5,4.8
		c2.1,1.1,4.4,1,6.8,1.1c3,0.1,6-1.2,8.9,0.1c2,0.8,4.5,0.1,6.7-0.2c1.1-0.2,2.1,0.1,3.1,0c3.2-0.2,4.5-2.5,6.7-3.7l0,0
		c0.1-0.2,0.3-0.3,0.4-0.5l0,0c0-0.3,0-0.7,0.4-0.9c-0.1-0.5,0.1-0.8,0.8-0.9c0.1-0.2,0.3-0.4,0.4-0.6c0.5-0.6,1-1.1,1.5-1.7
		c4.5-5.2,8.3-5.8,14.3-2.5c2.7,1.5,4.7,3.7,7.2,5.5c0.2,0.1,0.4,0.2,0.7,0.3c0.2,0.1,0.4,0.3,0.6,0.4v0.2l0.1,0.1
		c4.4,4.2,9.7,7.3,15.7,9.8C628.7,275.5,648.1,265.7,654.6,252.4z"/>
</g>
<path class="st13" d="M155.2,81.1c0,3.5-1,6.7-2.8,9.5c-8.1,12.8-16.1,25.7-25.6,37.5c-3.3,4.2-7.2,7.6-12.6,8.9
	c-3.2,0.7-6.4,0.6-9.2-1.2c-5.6-3.5-9.6-8-9-15.2c0.5-5.1,3.5-8.9,7.2-12.2c2.2-2,4.6-3.7,7.2-5c7.8-3.8,10.9-10.3,11.5-18.5
	c0.4-4.8,1.5-9.4,4.5-13.4c5.3-7,13.8-8.4,21.1-3.5C152.3,71.2,155.4,75.2,155.2,81.1z"/>
<path class="st1" d="M527.3,426.7c0.1,4.6-1.3,8.8-3.7,12.7c-10.7,17-21.4,34.1-34,49.9c-4.4,5.6-9.5,10.2-16.7,11.8
	c-4.3,1-8.5,0.8-12.2-1.6c-7.4-4.7-12.8-10.7-11.9-20.2c0.6-6.8,4.6-11.9,9.6-16.2c2.9-2.6,6.1-4.9,9.6-6.6
	c10.3-5.1,14.4-13.7,15.2-24.6c0.5-6.4,2-12.5,6-17.8c7.1-9.3,18.3-11.2,28.1-4.6C523.5,413.5,527.5,418.9,527.3,426.7z"/>
<path class="st4" d="M123.8,359.4c-1-1.9-1.7-4-3.2-5.6c0.1-0.8-0.2-1.6-0.4-2.3c-1.9-6.8-1-13,3.9-18.3c2-2.2,4.5-3.9,7-5.5
	c1.9-1.2,3.8-1.2,5.8-0.4c0.9,0.3,1.7,0.8,2.5,1.3c6.7,4,14.6,3,18.1-2.7c3.6-5.8,3.6-12.2,1-18.5c-2.5-4.7-5.6-9-9.1-12.9
	c-4.6-5.1-12.2-6.4-18.1-3.4c-5.8,2.9-9.2,10-7.7,16.9c0.5,2.5-0.2,4.4-2.2,5.8c-5.9,4.3-12.4,6.1-19.7,4.8c-5.4-1-10-3.8-14.5-6.7
	c-1.3-0.9-2.2-0.8-3.4,0.1c-6.1,4.6-12.1,9.1-18.3,13.6c-1.4,1-1.5,1.7-0.5,3.1c10.5,14.4,21,28.8,31.5,43.2c1.4,1.9,2.4,4,4.4,5.5
	c2-1.4,4.1-2.8,6.1-4.3c5.3-3.9,10.5-7.8,15.8-11.8C123.4,360.7,124.4,360.4,123.8,359.4z"/>
<path class="st7" d="M629.8,88.5c0.3,2.1,0.2,4.3,1,6.4c-0.4,0.7-0.4,1.5-0.4,2.3c-0.7,7-3.7,12.5-10.2,15.7
	c-2.7,1.3-5.6,2.1-8.5,2.7c-2.2,0.5-4-0.2-5.5-1.7c-0.7-0.6-1.3-1.4-1.9-2.1c-4.8-6.1-12.6-8-17.9-3.9c-5.4,4.2-7.7,10.1-7.6,16.9
	c0.6,5.3,2,10.4,3.9,15.3c2.5,6.4,9.1,10.3,15.6,9.6s12.1-6.1,13.2-13c0.4-2.6,1.8-4,4.1-4.7c7.1-2,13.8-1.3,20.1,2.6
	c4.7,2.9,8,7.1,11.1,11.4c0.9,1.3,1.8,1.5,3.2,1.1c7.3-2.1,14.6-4.2,21.9-6.2c1.7-0.5,2-1,1.6-2.8c-4.7-17.2-9.3-34.4-14-51.6
	c-0.6-2.2-0.8-4.6-2.1-6.7c-2.4,0.6-4.9,1.2-7.3,1.8c-6.3,1.8-12.6,3.6-19,5.4C630.6,87.4,629.6,87.3,629.8,88.5z"/>
<path class="st5" d="M293.8,10.8c-12.6-2.9-22.7-9.3-28.2-21.4c-3.2-7.1-3.5-14.6-1.2-22.1C267.8-43.9,276-50,286.3-54
	c4.6-1.8,9.3-3.1,14-4.5c5.1-1.5,9,0.3,11.2,5.1c3.6,7.8,5.1,16.3,6.5,24.7c0.2,1.3,0.7,2.1,1.8,2.7c6.8,4.2,13.9,7.9,21.9,9.2
	c2,0.3,4,0.8,5.8,1.8c2.5,1.4,3.2,3.6,1.8,6.1c-1.2,2.2-2.7,4-4.7,5.5c-10,7.5-21.2,12.3-33.5,14.4
	C305.4,12.2,299.6,12.1,293.8,10.8z"/>
<path class="st8" d="M42.2,436.1c-9.8-5.9-16.6-14-18-25.7c-0.8-6.9,1-13.2,4.9-18.9C35,383,43.5,380,53.3,379.4
	c4.4-0.2,8.7-0.1,13,0c4.7,0.1,7.5,2.7,8.1,7.3c0.9,7.6-0.1,15.1-1.2,22.6c-0.2,1.1,0,1.9,0.8,2.8c4.6,5.4,9.6,10.4,16,13.7
	c1.6,0.8,3.1,1.8,4.4,3.1c1.7,1.9,1.7,3.9-0.1,5.7c-1.6,1.5-3.4,2.7-5.4,3.4c-10.5,3.7-21.2,4.7-32.1,3.1
	C51.6,440.4,46.7,438.7,42.2,436.1z"/>
<path class="st6" d="M482.7,336.9c-3-3-6.3-5.6-9.1-8.7c-5.2-6-5.7-11-1.6-17.7c1.7-2.7,3.2-5.5,4.6-8.3c1.2-2.4,2-4.8,1.7-7.5
	c-0.4-3.9-3.1-6.2-7-6.1c-2.8,0.1-5,1.4-6.9,3.2c-4.6,4.2-7.7,9.4-10.2,14.9c-4.7,10-3.8,19.5,3.1,28.3c3,3.8,6,7.6,9.3,11.2
	c2.4,2.5,2.4,4.6,0.1,7.2c-1.5,1.7-3.1,3.3-4.5,4.9c-3.3,3.6-5.6,7.7-5.7,12.8c-0.1,2.9,0.9,5.2,3.8,6.4c2.3,1,4.5,0.6,6.6-0.6
	c2.9-1.6,5.4-3.6,7.9-5.7c5.9-4.7,10-10.6,12-17.9C488.5,347,487.3,341.6,482.7,336.9z"/>
<path class="st4" d="M16.9,66.2c-1.4-4-3.3-7.7-4.4-11.8c-2.1-7.7-0.4-12.4,6.3-16.7c2.7-1.7,5.3-3.5,7.7-5.5
	c2.1-1.6,3.9-3.5,4.8-6.1c1.3-3.7-0.1-6.9-3.7-8.5c-2.6-1.1-5.1-0.8-7.7-0.1c-5.9,1.8-11,5.1-15.7,9c-8.6,7-11.8,16-9.5,26.9
	c1,4.7,2.1,9.5,3.6,14.1c1.1,3.3,0.2,5.2-3,6.6c-2.1,0.9-4.2,1.6-6.2,2.5c-4.5,1.9-8.4,4.5-10.7,9.1c-1.3,2.6-1.4,5.1,0.6,7.4
	c1.6,1.8,3.8,2.4,6.2,2.3c3.3-0.2,6.4-1,9.6-1.7c7.3-1.7,13.6-5.3,18.6-11C17.8,77.8,19.1,72.4,16.9,66.2z"/>
<path class="st5" d="M29.5,76.7c0-14.7,11.7-26.4,26.3-26.4c13.9,0,25.6,12.1,25.5,26.5c-0.1,14.3-11.7,26-25.8,25.9
	C40.9,102.8,29.4,91.2,29.5,76.7z"/>
<path class="st3" d="M578.7,439.3c-0.5-0.5-1.2-0.8-1.4-1.6c1.4,0,2.6,0.2,3.9,0.1c5.4-0.5,9.9-2.6,12.1-7.9c2.1-5,0.2-9.4-3.1-13.3
	l0,0c-0.2-0.2-0.4-0.5-0.6-0.7v-0.1h-0.1c-0.1-0.4-0.4-0.6-0.8-0.8c-0.1-0.4-0.4-0.6-0.7-0.8c-2.7-3-6.2-4.9-9.9-6.3
	c-17.1-6.3-27.1,5.2-29.2,16.5c-0.9,4.7-0.1,9.1,2.5,13.3c-0.8-0.1-1.4-0.1-2-0.2c-5.8-0.7-11.2,0.3-15.8,4.3
	c-6.4,5.6-6.1,14.3,0.6,19.4c0.3,0.2,0.6,0.5,1.1,1c-4-0.2-7.6,0.2-11.1,1.9c-7.5,3.6-10.5,11.2-7.2,18.4c4,8.6,15.2,14.7,24.7,13.5
	c0.3,0,0.6,0,0.9,0l0,0c0.3,0,0.6,0,0.9-0.1l0,0l0,0l0,0l0,0c0.2,0,0.5-0.1,0.7-0.1l0.1,0.1l0.1-0.1c0.2,0.1,0.4,0.1,0.6-0.1
	c0.4,0.1,0.7,0.1,1.1-0.1l0.1,0.1l0.1-0.1c0.5,0.1,1,0,1.4-0.3l0,0c0.6-0.2,1.3-0.5,1.9-0.6c4.7-0.7,8.8-3,12.5-5.8
	c6.6-5.1,7.6-13.2,2.6-19.8c-0.8-1-1.7-1.9-2.7-3c6.3-0.1,11.6-2.3,16-6.3C585,453.8,585.2,445.7,578.7,439.3z"/>
<path class="st14" d="M66.8,294.4c-3.4-1.9-6.6-4.3-10.2-5.8c-0.4-0.3-0.7-0.6-1.1-0.9c-0.2-0.1-0.3-0.2-0.5-0.3l0,0
	c-0.2-0.1-0.3-0.2-0.5-0.3c-0.2-0.1-0.3-0.2-0.5-0.3c-0.1-0.1-0.3-0.2-0.4-0.3c-0.2-0.1-0.4-0.2-0.6-0.3c-0.6-0.6-1.2-1-2-1.3
	c-0.1-0.1-0.2-0.2-0.3-0.3c-11.4-7-22.9-14-34.3-21c-1.3-0.8-1.8-0.4-2.4,0.8c-8.6,17.5-17.3,35-26,52.4c-0.5,1.1-0.4,1.6,0.7,2.2
	c6.1,3.6,12.2,7.4,18.2,11.1c7.6,4.6,15.1,9.6,22.9,13.9c0.2,0.1,0.4,0.2,0.6,0.3h-0.1c0.2,0.1,0.4,0.2,0.6,0.3h-0.1
	c0.1,0.2,0.3,0.3,0.5,0.3c0.1,0.2,0.3,0.4,0.5,0.3c0.2,0.2,0.4,0.4,0.6,0.6c0.1,0.3,0.4,0.4,0.7,0.4l0,0c0.1,0.1,0.2,0.1,0.3,0.2
	c0.2,0.1,0.3,0.2,0.5,0.3l0,0c0.2,0.1,0.3,0.2,0.5,0.3l0,0c0.2,0.1,0.3,0.2,0.5,0.3l0,0c0.2,0.1,0.3,0.2,0.5,0.3l0,0
	c0.2,0.1,0.3,0.2,0.5,0.3l0,0c0.2,0.1,0.3,0.2,0.5,0.3l0,0c0.5,0.4,1,0.7,1.4,1.1c1.2,1.3,1.8,0.7,2.5-0.6c1.8-3.2,3.4-6.6,5.2-9.8
	c7.4-14.1,14.1-28.5,21.7-42.6C67.8,295.3,67.6,294.9,66.8,294.4z"/>
<path class="st8" d="M35.1,198.6c-5.6-13.2-11.2-26.5-16.8-39.7c-1.7-4.2-3.5-8.3-5.1-12.5c-0.6-1.5-1.2-1.7-2.8-1
	c-7.8,3.3-15.6,6.6-23.3,9.9c-0.5,0.2-1.3,0.3-1.4,1c0.2,0.5,0.3,1.1,0.5,1.6c3,7.4,6,14.8,9.1,22.2c3,7.3,6.1,14.6,9.2,21.9
	c3.7,9,7.4,18,11.1,27c0.4,0.9,0.9,1.1,1.9,0.7c4.2-1.8,8.5-3.6,12.7-5.4c0,0,0,0,0-0.1c0,0,0,0,0,0.1c3.8-1.6,7.7-3.2,11.5-4.7
	c1.6-0.6,1.7-1.2,1.1-2.5C40.1,210.8,37.6,204.7,35.1,198.6z"/>
<path class="st5" d="M532.4,139.4c-3.5,0-6.7-0.3-9.6-1.8c-3.6-1.9-5.6-4.9-5.7-9c-0.1-4.1,1.6-7.3,5.5-9.1c1.4-0.7,2.8-1.4,4.2-2
	c6.8-3,7.6-13.9,1.3-18.3c-0.6-0.5-1.3-0.9-2-1.2c-4.4-2.3-6.5-5.9-6.1-10.8s3.5-7.8,7.9-9.3c9.3-3.3,19.7-0.2,26.5,7.9
	c8.3,9.9,9.9,21.1,5.7,33.2c-3.2,9.3-9.3,15.9-18.8,19C538.3,139,535.2,139.5,532.4,139.4z"/>
<path class="st1" d="M263.3,130.7c-2.4-1.9-4.5-3.7-5.7-6.3c-1.5-3.3-1.4-6.4,0.8-9.2c2.1-2.9,5-4.2,8.6-3.4c1.3,0.3,2.7,0.6,4,0.8
	c6.4,1.5,12.6-5.6,10.7-12c-0.2-0.7-0.4-1.3-0.7-1.9c-1.9-3.9-1.5-7.6,1.5-10.8c2.9-3.3,6.5-3.5,10.5-2.3
	c8.2,2.6,13.8,10.3,14.2,19.6c0.5,11.4-4.3,20-13.6,26.2c-7.2,4.8-14.9,6.1-23.1,3.3C267.6,133.5,265.2,132.2,263.3,130.7z"/>
</svg>
