<svg width="169" height="102" viewBox="0 0 169 102" fill="none" xmlns="http://www.w3.org/2000/svg">
<path d="M47.3554 61.9086C42.2078 58.4236 44.0527 47.5782 48.4502 44.7945C52.5855 42.1784 57.6895 43.2234 60.6029 47.533C61.1659 48.3671 61.151 49.0431 60.3063 49.683C59.7422 50.1069 59.1849 50.567 58.713 51.0898C57.5475 52.3792 56.6527 52.785 55.2571 51.1109C53.7874 49.3482 52.257 49.7877 51.2094 51.842C50.877 52.4899 50.6423 53.1395 50.625 53.8622C50.5532 56.6273 52.1721 57.7913 54.548 56.4219C56.1874 55.4761 56.8289 55.9683 57.6577 57.3761C59.7471 60.9253 59.5961 61.4806 55.5361 63.2095C52.8179 64.077 50.2778 63.511 47.82 62.2627C47.6679 62.1437 47.5158 62.0248 47.3631 61.9096L47.3554 61.9086Z" fill="#100F0E"/>
<path d="M147.608 75.1575C147.624 75.8098 147.643 76.462 147.659 77.1144C145.903 77.6442 144.146 78.3724 142.404 77.0701C142.375 76.535 142.354 75.9996 142.325 75.4684C142.24 74.1665 142.154 72.8647 142.069 71.5628C142.001 71.4498 141.928 71.3332 141.86 71.2202C140.335 67.9543 138.253 65.0138 136.374 61.9575C135.479 60.5046 135.804 60.3978 137.355 60.1045C140.527 59.5026 142.488 60.4665 143.409 63.5743C143.547 64.0452 143.919 64.4451 144.35 65.1569C144.835 63.6922 145.287 62.4936 145.626 61.2623C145.999 59.8969 146.64 59.3025 148.224 59.4002C151.915 59.6258 151.921 59.5205 150.561 63.0191C149.84 64.8698 149.175 66.7485 148.374 68.5646C147.431 70.7032 147.207 72.8888 147.613 75.165L147.608 75.1575Z" fill="#100F0E"/>
<path d="M32.8008 66.3537C31.9046 66.2301 31.0095 66.0988 30.1138 65.9713C23.0192 63.5307 22.1749 53.9958 26.5684 49.4792C29.3862 46.5834 33.2384 45.7351 36.8179 47.3185C40.272 48.8453 42.6776 52.8301 42.2692 56.7285C41.7176 62.0338 38.1439 66.3186 32.7969 66.3532L32.8008 66.3537ZM29.9826 55.6137C29.6616 57.7134 30.729 59.6361 32.3556 59.8918C34.2086 60.1827 35.819 58.794 36.1413 56.6279C36.453 54.5387 35.506 52.9931 33.726 52.6849C31.7542 52.3463 30.3089 53.4756 29.9826 55.6137Z" fill="#100F0E"/>
<path d="M69.5978 48.8199C70.3901 47.7949 71.0244 47.2045 71.3808 46.4728C73.0125 43.1279 75.9166 42.6758 79.1575 42.9058C79.4625 42.9285 79.8322 42.7523 80.0419 43.1004C80.3172 43.557 79.8738 43.7963 79.6584 44.0712C78.2456 45.8375 76.878 47.6397 75.3661 49.3191C74.525 50.254 74.4212 50.8639 75.2976 51.8801C77.3119 54.2221 79.1752 56.6946 81.0825 59.1254C81.3883 59.5138 81.9813 59.8911 81.7169 60.426C81.4626 60.9369 80.7918 60.736 80.3003 60.7762C77.2074 61.0397 74.7744 59.9225 73.0015 57.4245C72.7783 57.1085 72.6099 56.7382 72.3322 56.4803C71.8553 56.0331 71.7376 54.8969 70.9246 55.1956C70.0392 55.5185 70.0708 56.5282 70.1977 57.3914C70.2177 57.5185 70.2148 57.651 70.2232 57.7788C70.4643 61.7318 70.4602 61.6699 66.5061 61.9538C65.2281 62.0458 64.8294 61.7219 64.7727 60.4494C64.5379 55.3519 64.2254 50.2557 63.8896 45.1611C63.8265 44.2041 63.9965 43.8311 65.0602 43.7337C69.3338 43.3392 69.3269 43.293 69.5253 47.6613C69.5372 47.9017 69.5569 48.1417 69.6011 48.8119L69.5978 48.8199Z" fill="#100F0E"/>
<path d="M121.692 49.9269C122.982 49.7715 124.355 49.2773 124.959 51.1617C125.165 51.8038 125.952 52.1928 126.751 51.9435C127.11 51.8308 127.479 51.6009 127.486 51.1456C127.502 50.3709 126.893 50.0306 126.343 49.722C125.453 49.218 124.495 48.8304 123.597 48.3346C121.456 47.1478 119.872 45.6081 120.032 42.8776C120.168 40.51 121.355 38.8711 123.43 37.9073C125.766 36.8244 128.053 36.9846 130.15 38.586C130.507 38.8583 130.858 39.1621 131.126 39.517C131.943 40.6004 132.827 41.7697 132.316 43.1777C132.031 43.9629 128.512 43.6595 127.582 42.8698C126.996 42.3727 126.402 41.9693 125.803 42.8261C125.258 43.6099 125.896 44.0459 126.411 44.368C127.112 44.8083 127.887 45.1319 128.652 45.4561C132.806 47.2106 134.476 50.7092 132.705 53.9663C130.848 57.3834 125.775 58.6221 122.427 56.4701C120.715 55.3689 119.777 53.7749 119.213 51.834C118.821 50.4709 119.077 49.8894 120.532 49.974C120.914 49.9961 121.304 49.9401 121.692 49.9191L121.692 49.9269Z" fill="#100F0E"/>
<path d="M85.1046 43.3599C85.12 42.9777 85.1353 42.5956 85.1468 42.2136C85.147 41.9647 85.1475 41.7196 85.1439 41.4708C84.8337 38.9614 86.9034 40.1021 87.9339 39.6535C90.775 39.4863 93.6161 39.3191 96.461 39.1517C97.3552 39.1433 98.2492 39.131 99.1473 39.1224C99.6132 40.5602 99.2424 42.0574 99.4528 43.5149C99.595 44.4981 98.8982 44.4904 98.2276 44.5278C96.2972 44.6389 94.3721 44.7731 92.4412 44.8764C91.8209 44.9107 91.282 44.94 91.3822 45.8091C91.4762 46.6397 92.0533 46.4096 92.5268 46.3922C93.6213 46.352 94.7226 46.3581 95.8026 46.2099C97.0063 46.0463 97.3386 46.5159 97.4134 47.6667C97.6289 50.9132 97.6788 50.9024 94.4361 51.1177C93.545 51.1764 92.6548 51.3129 91.7664 51.4143C91.1862 52.3526 90.8824 53.1687 92.5329 53.0593C93.3464 53.0053 94.1586 52.928 94.9712 52.8586C95.0342 52.8702 95.0974 52.8858 95.1599 52.8897C96.7462 52.9398 99.2265 52.4098 99.7247 53.1726C100.584 54.489 100.216 56.6084 100.361 58.3889C99.8638 58.4623 99.3704 58.5355 98.8733 58.6128C97.9238 58.6712 96.978 58.7256 96.0283 58.7802C95.9424 58.7116 95.8569 58.713 95.7714 58.7766C94.5925 58.8375 93.414 58.9023 92.2313 58.9635C91.1959 59.0156 90.1643 59.0674 89.1289 59.1195C88.2403 59.0926 87.3558 59.0692 86.4672 59.0423C85.7968 58.5156 85.9985 57.7485 85.9524 57.0628C85.7149 53.522 85.5004 49.9758 85.2745 46.4342C85.3781 45.4009 85.3032 44.3746 85.0966 43.3565L85.1046 43.3599Z" fill="#100F0E"/>
<path d="M111.287 58.1912C110.911 58.1628 110.53 58.1378 110.154 58.1094C108.873 57.9327 107.589 57.7555 106.308 57.5788C106.176 57.541 106.041 57.4988 105.909 57.461C105.813 57.299 105.722 57.1374 105.627 56.9753L105.638 57.0044C105.728 56.2407 105.818 55.477 105.907 54.7134C105.947 54.4562 105.99 54.2034 106.029 53.9462C106.449 51.4996 106.823 49.0428 107.304 46.6047C107.526 45.479 107.305 44.8959 106.063 44.9167C105.557 44.9252 105.048 44.8315 104.541 44.7851C104.042 44.5711 103.388 44.7083 103.048 44.1284C103.263 42.4609 103.477 40.7933 103.692 39.1219C104.014 38.5746 104.545 38.9339 104.97 38.8357C108.82 39.3355 112.671 39.8353 116.521 40.3389C116.781 40.3591 117.036 40.3826 117.296 40.4027C117.821 40.6045 118.167 40.907 118.042 41.5561C117.923 42.1903 117.866 42.8369 117.778 43.4754C117.363 46.3931 117.355 46.4546 114.378 46.0401C113.259 45.8857 112.951 46.1881 112.819 47.2595C112.366 50.9088 111.806 54.5433 111.288 58.1874L111.287 58.1912Z" fill="#0D0C0C"/>
<path d="M13.2154 39.3762C15.5728 40.6491 17.9355 41.9204 20.2929 43.1932C20.5105 43.3699 20.7265 43.5412 20.9441 43.7179C21.2552 43.9501 21.5628 44.1805 21.8739 44.4128L22.6372 45.5654L22.8036 45.5769L22.8444 45.4133L22.8443 45.462C22.8586 45.6866 22.8728 45.9113 22.8889 46.1326C23.5437 48.8902 22.7772 51.2769 20.6503 53.0517C18.5073 54.8398 16.0729 54.2331 13.9885 52.9547C12.249 51.8874 11.4888 52.3786 10.9028 54.0231C10.8386 54.2049 10.7284 54.3659 10.642 54.5399C8.86742 58.1453 8.89165 58.101 5.43142 56.2068C4.32796 55.6027 4.12178 55.0738 4.7454 53.9589C6.63797 50.5907 8.43364 47.165 10.2649 43.7632C10.7627 42.8539 11.2587 41.948 11.7565 41.0386C12.3335 40.5667 12.2512 39.5123 13.2135 39.3796L13.2154 39.3762ZM15.0728 47.0769C14.6628 47.6802 14.4141 48.2478 15.3214 48.6118C16.1619 48.9524 17.0564 49.4288 17.6676 48.3204C18.1113 47.5098 17.4435 47.153 16.8595 46.8776C16.2396 46.5869 15.507 45.7742 15.0728 47.0769Z" fill="#141211"/>
<path d="M84.8744 69.5624L85.043 70.5293C85.0496 74.4172 85.0486 74.3978 81.0956 74.6412C80.0298 74.7062 78.9792 74.9804 77.9102 75.0573C77.2054 75.1107 77.0859 75.4204 77.1 76.0456C77.1205 76.8611 77.6322 76.7597 78.1517 76.7318C79.3112 76.6734 80.4736 76.6693 81.626 76.553C82.5928 76.4544 82.9692 76.7297 83.0678 77.7703C83.4025 81.3957 83.4488 81.3893 79.5505 81.7075C77.0186 81.9135 76.8926 82.2469 77.319 84.7553C77.5703 86.2504 78.4525 87.9061 77.0486 89.3502C76.7972 89.3753 76.546 89.4044 76.2985 89.4293C76.1067 89.4046 75.9177 89.3604 75.7271 89.3589C71.8956 89.3314 71.8763 89.3324 71.6882 85.396C71.4633 80.7032 71.3163 76.0102 71.0411 71.3202C70.9533 69.8318 71.3958 69.3103 72.9257 69.2709C74.8437 69.2185 76.7846 69.4486 78.6846 68.9889C80.0009 69.2448 81.2729 68.8926 82.5573 68.6992C83.477 68.5915 84.3013 68.7377 84.8781 69.5583L84.8744 69.5624Z" fill="#100F0E"/>
<path d="M59.9001 87.4564C58.6274 87.7231 57.3481 87.8657 56.0504 87.6671C50.4495 86.1132 47.2071 80.6182 48.6846 75.1886C50.2925 69.2893 54.8011 66.9397 61.235 68.6549L61.2311 68.6552C61.3636 68.7336 61.4962 68.812 61.6328 68.8941C61.7243 69.0058 61.8392 69.0463 61.978 69.0233C67.5447 73.1259 67.3847 77.8937 65.8975 81.9124C64.8481 84.745 62.8378 86.626 59.9003 87.4603L59.9001 87.4564ZM60.6726 77.4415C60.5781 75.3197 59.1351 73.7914 57.3501 73.93C55.5999 74.0668 54.3309 75.6319 54.3854 77.5887C54.4448 79.7085 55.8265 81.3257 57.5353 81.2883C59.5041 81.2409 60.7699 79.6876 60.6726 77.4415Z" fill="#0D0C0C"/>
<path d="M136.925 72.9557C137.268 80.5739 131.143 86.0432 124.429 84.1058C119.626 82.7229 116.318 77.2353 117.082 71.9179C117.802 66.9256 121.928 63.0996 126.735 62.9698C132.124 62.8281 136.667 67.2811 136.925 72.9519L136.925 72.9557ZM123.664 73.6407C123.819 76.0937 125.152 77.5269 127.147 77.3886C129.344 77.2395 130.5 75.7349 130.36 73.2073C130.232 70.889 128.759 69.3972 126.758 69.5552C124.659 69.7185 123.516 71.2341 123.668 73.6367L123.664 73.6407Z" fill="#0D0C0C"/>
<path d="M107.99 62.0795C106.827 62.1419 106.472 62.4099 106.549 63.6422C106.735 66.6689 107.092 69.6943 106.832 72.7372C106.73 73.9519 106.683 75.187 105.036 75.1433C104.694 75.1344 104.399 75.0725 104.148 74.9654C103.575 74.724 102.92 74.7631 102.423 75.1397L99.7223 77.1939C98.9079 77.8131 98.8331 79.0264 99.5822 79.7249C99.9344 80.056 100.336 80.361 100.782 80.6442C101.313 80.7518 101.797 80.9358 102.07 81.4538C104.284 81.7704 106.485 81.7688 108.646 81.1123C108.928 80.7006 109.221 80.3038 109.73 80.152C111.588 78.4775 112.497 76.4223 112.691 73.8961C112.89 71.2959 112.609 68.7331 112.54 66.155C112.427 61.8023 112.398 61.8466 107.99 62.0795Z" fill="#0D0C0C"/>
<path d="M120.253 30.0335C119.901 30.5439 119.741 31.1048 119.806 31.7239C119.431 31.9429 119.058 32.1542 118.598 32.0758C117.149 31.4713 114.89 31.9912 114.282 30.6309C113.775 29.492 114.711 27.6994 115.032 26.1998C115.526 23.8874 116.043 21.58 116.553 19.271C116.946 17.501 117.339 15.7348 117.733 13.9648C117.816 13.713 117.899 13.465 117.983 13.2131C119.484 13.511 120.981 13.8439 122.488 14.0955C123.486 14.2615 123.739 14.7118 123.454 15.6744C123.162 16.6476 123.022 17.6706 122.815 18.6707C121.961 22.4583 121.107 26.2459 120.254 30.0297L120.253 30.0335Z" fill="#100F0E"/>
<path d="M87.7426 16.9294C89.2973 16.5507 89.7932 17.4208 90.2614 18.6397C92.171 23.6057 94.1668 28.5388 96.1509 33.4755C96.8331 35.1733 96.6995 35.3993 94.9403 35.2295C93.9174 35.1314 92.8899 35.0566 91.8675 34.9352C91.5654 34.9009 91.1084 34.8473 91.0043 34.6507C89.4468 31.7048 86.7166 33.8305 84.6431 33.1561C84.5545 33.1268 84.3423 33.2305 84.317 33.3154C83.576 35.5776 81.7129 34.8732 80.1519 34.8634C77.6628 34.8471 77.6712 34.8201 78.6985 32.6074C80.8879 27.8978 83.1081 23.2006 85.2284 18.4622C85.7739 17.2401 86.3599 16.4384 87.7426 16.9255L87.7426 16.9294ZM87.6283 26.174C87.0464 27.1272 86.3091 27.9214 86.6253 28.8339C86.7599 29.2215 88.1425 29.2194 88.3382 28.8279C88.7704 27.9643 88.0126 27.1657 87.6283 26.174Z" fill="#100F0E"/>
<path d="M142.138 36.4888C140.848 36.3916 139.564 36.2402 138.272 36.2167C137.475 36.2024 136.947 35.8477 136.482 35.2801C135.355 32.8665 134.226 30.4568 133.099 28.0431C132.962 28.0514 132.825 28.0559 132.688 28.0642C132.49 30.4983 132.291 32.9325 132.093 35.3666C130.289 35.9481 128.491 35.1588 126.689 35.3237C126.55 35.176 126.414 35.0286 126.274 34.8808C126.64 30.3802 127.003 25.8792 127.366 21.3783C127.532 19.5765 127.695 17.7705 127.861 15.9688C128.004 15.8402 128.147 15.7116 128.29 15.583C129.452 15.666 130.614 15.7451 131.772 15.8277C132.16 15.8515 132.551 15.8795 132.939 15.9033C133.617 15.943 133.93 16.4515 134.265 16.9346C135.215 18.9987 136.161 21.0625 137.312 23.5638L137.865 16.7799C137.932 16.6763 137.968 16.5663 137.974 16.446C139.521 16.5408 141.062 16.6976 142.608 16.7105C143.826 16.7241 144.124 17.2236 143.998 18.3859C143.343 24.4174 142.75 30.4539 142.137 36.4927L142.138 36.4888Z" fill="#0D0C0C"/>
<path d="M112.21 16.5309C112.222 17.172 112.257 17.8136 112.242 18.458C112.167 21.971 112.165 22.0292 108.729 22.1497C107.664 22.1866 107.633 22.6791 107.638 23.4599C107.653 26.4119 107.638 29.3671 107.634 32.3186C107.631 33.0876 107.713 33.8663 107.331 34.5835C107.009 34.5758 106.687 34.5682 106.361 34.5605C103.173 34.4849 101.668 32.8763 101.846 29.7347C101.957 27.6711 101.956 25.6011 102.121 23.5427C102.214 22.3875 101.936 21.9809 100.69 21.9553C97.5731 21.8969 97.5748 21.827 97.6496 18.6713C97.7106 16.0978 97.7102 16.1134 100.218 16.1534C103.122 16.1989 106.031 16.2174 108.935 16.2474C109.463 16.2483 109.988 16.2452 110.516 16.246C110.726 16.2044 110.941 16.159 111.152 16.1174C111.506 16.254 111.86 16.3944 112.214 16.531L112.21 16.5309Z" fill="#0D0C0C"/>
<path d="M54.4798 26.8683C54.3883 27.3906 54.2929 27.9131 54.2014 28.4354C54.0761 29.8189 53.4072 30.9372 52.2257 31.5784C51.2178 32.1244 51.4409 32.5708 51.926 33.3216C52.9764 34.9392 53.9292 36.6206 54.9308 38.2682C55.449 39.126 55.2903 39.5587 54.2106 39.5837C52.9173 39.6128 51.6216 39.6693 50.338 39.8028C49.3559 39.9041 48.7727 39.5554 48.3579 38.6685C47.6744 37.2172 46.9189 35.797 46.1596 34.381C45.8732 33.8447 45.7118 33.041 44.8269 33.2807C43.9764 33.5108 44.4097 34.2411 44.4255 34.734C44.4694 36.1549 44.6067 37.5744 44.7127 38.9917C44.7345 39.3133 44.8816 39.8612 44.7758 39.9176C43.1873 40.7214 41.424 40.5511 39.7267 40.6572C38.6339 40.7257 38.9257 39.679 38.8787 39.0438C38.6262 35.6903 38.4087 32.3387 38.1833 28.9836C38.1652 28.588 38.1471 28.1923 38.1293 27.8006C38.0558 26.1286 38.0053 24.4515 37.9047 22.7811C37.8648 22.0639 37.8796 21.5615 38.8288 21.497C41.7232 21.3089 44.6119 20.88 47.5065 20.8358C51.9126 20.7697 53.2383 22.0221 54.4878 26.8718L54.4798 26.8683ZM46.311 25.8408L46.3105 25.8331C45.9888 25.851 45.6674 25.8766 45.3452 25.8868C44.5027 25.9103 43.8628 26.0119 43.9354 27.1784C44.0057 28.3022 44.4599 28.6386 45.5055 28.491C46.3274 28.3753 47.1659 28.4182 47.964 28.086C48.5608 27.839 49.0077 27.4836 48.8894 26.8252C48.7778 26.217 48.301 25.8235 47.6607 25.7775C47.2155 25.7439 46.7606 25.8158 46.311 25.8408Z" fill="#100F0E"/>
<path d="M66.6795 30.4147C66.179 31.813 66.7938 32.0573 68.0782 31.9484C70.264 31.7614 72.4715 31.8141 74.6555 31.6078C75.9973 31.4858 75.9231 32.4282 75.7737 33.0578C75.4187 34.5131 77.5025 36.85 75.2447 37.3165C71.0278 38.191 66.6479 38.2578 62.3104 38.3207C61.0956 38.3376 61.1845 37.4718 61.1392 36.7585C60.9909 34.4406 60.9202 32.1195 60.4207 29.8413C60.4263 29.7316 60.4281 29.6223 60.4337 29.5126C60.5726 26.2797 60.006 23.0914 59.761 19.8817C59.6752 18.7666 59.9874 18.4692 61.0525 18.3919C65.1037 18.0977 69.1536 17.7452 73.1951 17.3427C74.219 17.2418 74.4834 17.5336 74.5604 18.5519C74.8851 22.7252 74.9277 22.7213 70.8251 23.0943C69.7347 23.1934 68.6397 23.2851 67.5503 23.3959C67.0019 23.4535 66.3404 23.3382 66.3857 24.2659C66.4307 25.2325 67.075 24.9868 67.6252 24.9485C68.5897 24.8803 69.561 24.8427 70.515 24.7014C72.1615 24.4582 72.9324 25.0899 72.8871 26.7782C72.8709 27.4152 73.0185 28.0528 73.0924 28.6933C73.1001 29.7219 72.3137 29.6062 71.6455 29.7605C70.0067 30.1317 68.2512 29.5622 66.6841 30.422L66.6795 30.4147Z" fill="#0D0C0C"/>
<path d="M20.722 37.2028C15.9906 33.1682 19.0178 22.5958 23.6951 20.3134C28.0934 18.1687 33.0512 19.7695 35.4723 24.3738C35.94 25.2648 35.8507 25.9351 34.9407 26.4781C34.3333 26.8372 33.7287 27.2332 33.2021 27.7008C31.9016 28.854 30.9677 29.1587 29.7649 27.3411C28.4983 25.4273 26.9288 25.6956 25.6613 27.622C25.2596 28.2293 24.9548 28.8491 24.8579 29.5655C24.482 32.3058 25.9628 33.641 28.4752 32.5417C30.2088 31.7823 30.7922 32.3421 31.4609 33.8326C33.1467 37.5903 32.9354 38.1256 28.7097 39.3968C25.9124 39.9597 23.4501 39.1174 21.1448 37.6059C21.0067 37.4709 20.8686 37.3359 20.7296 37.2047L20.722 37.2028Z" fill="#100F0E"/>
<path d="M154.82 42.51C152.813 41.9158 150.96 40.9819 149.147 39.9595C148.663 39.3324 148.179 38.7052 147.692 38.0765C145.441 34.7482 145.937 29.6437 148.875 25.8701C151.468 22.5378 155.518 21.5194 159.827 23.1008C161.289 23.6368 162.611 24.4164 163.844 25.3646C164.642 25.9757 164.841 26.5552 164.223 27.4609C162.239 30.3692 162.264 30.389 158.994 28.9608C155.626 27.493 153.074 28.5142 152.125 31.7617C151.634 33.4357 152.16 34.8275 153.586 35.8115C154.693 36.5789 155.808 36.6646 156.803 35.6396C156.59 34.7514 155.034 35.1698 155.377 34.0509C155.754 32.8281 156.333 31.6667 156.881 30.5083C156.918 30.4269 157.477 30.5298 157.757 30.6437C158.476 30.9295 159.17 31.2807 159.882 31.5893C164.406 33.5618 164.461 33.5909 162.096 37.9377C160.859 40.2079 159.111 41.9581 156.316 42.2052C155.818 42.3085 155.322 42.4083 154.827 42.5132L154.82 42.51Z" fill="#100F0F"/>
</svg>
